<svg xmlns="http://www.w3.org/2000/svg" version="1.1" xmlns:xlink="http://www.w3.org/1999/xlink" viewBox="0 0 200 200"><rect width="200" height="200" fill="url('#gradient')"></rect><defs><linearGradient id="gradient" gradientTransform="rotate(45 0.5 0.5)"><stop offset="0%" stop-color="#ffffff"></stop><stop offset="100%" stop-color="#ffffff"></stop></linearGradient></defs><g><g fill="#1e3a5f" transform="matrix(5.941972920696325,0,0,5.941972920696325,3.620493014269215,142.24680312597545)" stroke="#2196a6" stroke-width="0.2"><path d="M1.07-14.22L5.58-14.22L8.75-4.33L11.91-14.22L16.43-14.22L16.43 0L12.99 0L12.99-3.32L13.32-10.12L9.88 0L7.62 0L4.17-10.13L4.50-3.32L4.50 0L1.07 0L1.07-14.22ZM27.69 0L26.86-2.66L22.16-2.66L21.34 0L17.68 0L22.89-14.22L26.11-14.22L31.37 0L27.69 0ZM24.50-10.23L22.98-5.30L26.04-5.30L24.50-10.23Z"></path></g></g></svg>